<svg width="32" height="32" viewBox="0 0 32 32" fill="none" xmlns="http://www.w3.org/2000/svg" class="text-white">
  <path d="M18 6H26C27.1046 6 28 6.89543 28 8V18C28 19.1046 27.1046 20 26 20H22L18 24V20H18C16.8954 20 16 19.1046 16 18V10C16 7.79086 17.7909 6 20 6H18Z" stroke="currentColor" stroke-width="2"/>
  <path d="M14 12H6C4.89543 12 4 12.8954 4 14V24C4 25.1046 4.89543 26 6 26H10L14 30V26H14C15.1046 26 16 25.1046 16 24V16C16 13.7909 14.2091 12 12 12H14Z" stroke="currentColor" stroke-width="2"/>
</svg>
